<?xml version="1.0" encoding="UTF-8" standalone="no"?>
<!-- Created with Inkscape (http://www.inkscape.org/) -->

<svg
   xmlns:dc="http://purl.org/dc/elements/1.1/"
   xmlns:cc="http://creativecommons.org/ns#"
   xmlns:rdf="http://www.w3.org/1999/02/22-rdf-syntax-ns#"
   xmlns:svg="http://www.w3.org/2000/svg"
   xmlns="http://www.w3.org/2000/svg"
   xmlns:sodipodi="http://sodipodi.sourceforge.net/DTD/sodipodi-0.dtd"
   xmlns:inkscape="http://www.inkscape.org/namespaces/inkscape"
   width="64"
   height="64"
   id="svg3360"
   version="1.1"
   inkscape:version="0.91 r13725"
   viewBox="0 0 64 64"
   sodipodi:docname="logo.svg"
   inkscape:export-filename="/home/erasmo/Imágenes/tedt.png"
   inkscape:export-xdpi="1599.5464"
   inkscape:export-ydpi="1599.5464">
  <defs
     id="defs3362" />
  <sodipodi:namedview
     id="base"
     pagecolor="#ffffff"
     bordercolor="#666666"
     borderopacity="1.0"
     inkscape:pageopacity="0.0"
     inkscape:pageshadow="2"
     inkscape:zoom="5.5"
     inkscape:cx="20.503299"
     inkscape:cy="11.256193"
     inkscape:current-layer="layer1"
     showgrid="true"
     inkscape:document-units="px"
     inkscape:grid-bbox="true"
     inkscape:window-width="1920"
     inkscape:window-height="1023"
     inkscape:window-x="0"
     inkscape:window-y="27"
     inkscape:window-maximized="1" />
  <metadata
     id="metadata3365">
    <rdf:RDF>
      <cc:Work
         rdf:about="">
        <dc:format>image/svg+xml</dc:format>
        <dc:type
           rdf:resource="http://purl.org/dc/dcmitype/StillImage" />
        <dc:title></dc:title>
      </cc:Work>
    </rdf:RDF>
  </metadata>
  <g
     id="layer1"
     inkscape:label="Layer 1"
     inkscape:groupmode="layer">
    <g
       id="g5352"
       inkscape:export-xdpi="1599.5464"
       inkscape:export-ydpi="1599.5464">
      <ellipse
         ry="26.808918"
         rx="26.399826"
         cy="32.909088"
         cx="32.227272"
         id="path5214"
         style="fill:#699f94;fill-opacity:1;stroke:#000000;stroke-width:0.83671057;stroke-opacity:0" />
      <g
         style="opacity:1;fill:#fefefe;fill-opacity:1"
         transform="matrix(1.1151583,0,0,1.0415353,-2.3756757,-1.2923004)"
         id="g5172">
        <path
           inkscape:connector-curvature="0"
           id="path5212"
           d="m 25.850466,56.995072 -4.881213,-5.151549 0,-9.109036 0,-9.109036 9.621757,0 9.621757,0 0,9.247354 0,9.247354 -4.701565,5.016478 c -2.58586,2.759063 -4.719105,5.015016 -4.740544,5.013232 -0.02144,-0.0018 -2.235525,-2.321443 -4.920192,-5.154797 z M 9.717063,39.984227 C 5.6791865,35.728695 2.3748725,32.232969 2.3741432,32.215948 2.3734139,32.198927 5.677131,28.660286 9.7157368,24.352301 l 7.3429192,-7.8327 0.01426,7.825986 c 0.0078,4.304293 0.0078,11.324733 0,15.600979 l -0.01426,7.774992 -7.341593,-7.737331 z M 44.3203,32.157805 c 0,-8.543998 0.02066,-15.526102 0.04592,-15.515786 0.07427,0.03033 14.611784,15.367923 14.611784,15.415947 0,0.04353 -14.595605,15.634381 -14.636353,15.634381 -0.01174,0 -0.02135,-6.990544 -0.02135,-15.534542 z m -23.351047,-11.107833 0,-8.693016 0.464208,-0.500025 c 2.711297,-2.920498 9.136364,-9.7387095 9.166674,-9.7275756 0.02154,0.00791 1.792047,1.8627731 3.934469,4.1219166 2.142422,2.2591434 4.296453,4.53004 4.786737,5.046437 l 0.891426,0.938903 0,8.753188 0,8.753188 -9.621757,0 -9.621757,0 0,-8.693016 z"
           style="fill:#fefefe;fill-opacity:1" />
        <path
           inkscape:connector-curvature="0"
           id="path5210"
           d="m 25.871537,56.999101 -4.902284,-5.166486 0,-9.103582 0,-9.103582 9.621757,0 9.621757,0 0,9.242551 0,9.242551 -4.505834,4.810278 c -2.478208,2.645653 -4.601971,4.908037 -4.719473,5.027516 l -0.213639,0.217238 -4.902284,-5.166484 z M 9.7275277,39.983157 C 5.5390166,35.568104 2.4082775,32.22456 2.4241088,32.183305 c 0.01524,-0.03971 3.3142481,-3.577623 7.3311284,-7.862018 l 7.3034188,-7.789809 0.01427,7.787374 c 0.0078,4.283056 0.0078,11.298403 0,15.589661 l -0.01427,7.802286 -7.3311283,-7.727642 z M 44.3203,32.17582 c 0,-8.548748 0.01158,-15.543179 0.02573,-15.543179 0.01415,0 3.320578,3.472413 7.347615,7.716474 l 7.321886,7.716474 -0.334365,0.343857 c -0.183905,0.189122 -3.379806,3.597531 -7.102007,7.574242 -3.722201,3.976711 -6.878162,7.343993 -7.013248,7.482848 L 44.3203,47.719 l 0,-15.54318 z m -23.351047,-11.124484 0,-8.691651 4.788463,-5.1079737 c 2.633655,-2.809385 4.806301,-5.1079729 4.828103,-5.1079729 0.0218,0 2.196785,2.2729216 4.833294,5.0509372 l 4.793654,5.0509364 0,8.748688 0,8.748688 -9.621757,0 -9.621757,0 0,-8.691652 z"
           style="fill:#fefefe;fill-opacity:1" />
        <path
           inkscape:connector-curvature="0"
           id="path5208"
           d="m 25.873374,56.995086 -4.902971,-5.167072 -5.75e-4,-9.101281 -5.75e-4,-9.101282 9.621757,0 9.621757,0 -10e-4,9.241951 -0.001,9.24195 -4.588441,4.89528 c -2.523643,2.692404 -4.646371,4.954287 -4.717175,5.026406 l -0.128733,0.13112 -4.902972,-5.167072 z M 9.7438706,39.992781 C 5.7207384,35.751787 2.4290848,32.250796 2.4290848,32.212802 c 0,-0.03799 3.2916536,-3.580171 7.3147858,-7.871504 l 7.3147854,-7.802424 0.01427,7.783676 c 0.0078,4.281022 0.0078,11.293104 0,15.582403 L 17.058656,47.70368 9.7438706,39.992781 Z M 44.3203,32.16212 l 0,-15.556705 0.416095,0.421553 c 0.228851,0.231854 3.533061,3.709272 7.34269,7.727596 l 6.926593,7.306042 -1.198207,1.274764 c -0.659011,0.70112 -3.865404,4.12331 -7.125315,7.604867 -3.25991,3.481557 -6.024928,6.431012 -6.144483,6.554346 l -0.217373,0.224243 0,-15.556706 z m -23.351047,-11.106741 0,-8.687608 4.790625,-5.1120163 c 2.634844,-2.811609 4.806069,-5.1162093 4.824946,-5.1213339 0.01888,-0.00512 2.192885,2.2693308 4.831131,5.0543456 l 4.796812,5.0636636 0,8.745279 0,8.745279 -9.621757,0 -9.621757,0 0,-8.687609 z"
           style="fill:#fefefe;fill-opacity:1" />
        <path
           inkscape:connector-curvature="0"
           id="path5206"
           d="m 25.874182,56.994064 -4.902748,-5.16605 -0.0011,-9.101281 -0.0011,-9.101282 9.621757,0 9.621757,0 -0.0016,9.241951 -0.0016,9.24195 -4.643517,4.951548 c -2.553934,2.723351 -4.676262,4.984773 -4.716283,5.025381 -0.05978,0.06066 -0.947763,-0.848155 -4.975512,-5.092217 z M 9.7438706,39.989751 c -4.0231322,-4.241088 -7.3147858,-7.74057 -7.3147858,-7.776626 0,-0.03606 3.2916536,-3.576627 7.3147858,-7.867936 l 7.3147854,-7.802381 0.01427,7.781709 c 0.0078,4.27994 0.0078,11.290493 0,15.579006 L 17.058656,47.70082 9.7438706,39.989751 Z M 44.3203,32.162077 l 0,-15.556528 0.360083,0.365219 c 0.198046,0.20087 3.503506,3.680442 7.345467,7.732384 l 6.985382,7.367166 -0.388567,0.39776 c -0.213716,0.218769 -3.434013,3.651434 -7.15622,7.628145 -3.722208,3.976712 -6.852811,7.318584 -6.956897,7.426383 l -0.189248,0.195999 0,-15.556528 z M 20.969253,21.0573 l 0,-8.685688 4.794022,-5.1139369 c 2.636712,-2.8126653 4.807774,-5.1134583 4.824581,-5.1128736 0.01681,5.846e-4 2.189288,2.2757367 4.827735,5.0558936 l 4.797176,5.0548309 0,8.74373 0,8.743732 -9.621757,0 -9.621757,0 0,-8.685688 z"
           style="fill:#fefefe;fill-opacity:1" />
        <path
           inkscape:connector-curvature="0"
           id="path5204"
           d="m 25.873986,56.993377 -4.902709,-5.165363 -0.001,-9.101281 -10e-4,-9.101282 9.621757,0 9.621757,0 -0.0022,9.241951 -0.0022,9.24195 -4.671507,4.979681 c -2.569329,2.738825 -4.691454,4.999938 -4.715833,5.024695 -0.02438,0.02476 -2.250545,-2.279399 -4.947035,-5.120351 z M 9.7438706,39.989751 c -4.0231322,-4.241088 -7.3147858,-7.74057 -7.3147858,-7.776626 0,-0.03606 3.2916536,-3.576627 7.3147858,-7.867936 l 7.3147854,-7.802381 0.01427,7.781709 c 0.0078,4.27994 0.0078,11.290493 0,15.579006 L 17.058656,47.70082 9.7438706,39.989751 Z M 44.3203,32.161975 l 0,-15.556342 0.331981,0.337042 c 0.858218,0.871304 14.258491,15.030287 14.281408,15.090006 0.01852,0.04827 -12.371251,13.351614 -14.452271,15.517915 l -0.161118,0.167721 0,-15.556342 z m -23.351047,-11.104866 0,-8.685879 4.39752,-4.6917388 c 2.418636,-2.5804566 4.582154,-4.8886096 4.807819,-5.1292291 l 0.410298,-0.43749 4.813939,5.0732113 4.813938,5.0732116 0,8.741896 0,8.741897 -9.621757,0 -9.621757,0 0,-8.685879 z"
           style="fill:#fefefe;fill-opacity:1" />
        <path
           inkscape:connector-curvature="0"
           id="path5202"
           d="m 25.877299,56.994372 -4.904325,-5.166358 -0.0019,-9.101281 -0.0019,-9.101282 9.621757,0 9.621757,0 -0.0028,9.241951 -0.0028,9.24195 -4.279849,4.557674 c -2.353917,2.506721 -4.474683,4.768279 -4.712815,5.025692 l -0.432967,0.468011 -4.904323,-5.166357 z M 9.741796,39.983133 C 5.7198049,35.743065 2.4222323,32.253611 2.4138571,32.228791 2.4054818,32.203971 5.7034654,28.658645 9.7427098,24.35029 l 7.3440802,-7.833372 0,15.587714 c 0,8.573243 -0.0073,15.587715 -0.01614,15.587715 -0.0089,0 -3.306862,-3.469146 -7.328853,-7.709214 z m 34.578504,-7.821306 0,-15.556096 0.30385,0.30886 c 0.837594,0.851405 14.286425,15.060222 14.308769,15.117345 0.0183,0.04679 -11.753198,12.685574 -14.479779,15.546597 l -0.13284,0.13939 0,-15.556096 z m -23.351047,-11.102706 0,-8.683868 4.425042,-4.721884 c 2.433772,-2.5970365 4.597788,-4.9046081 4.808924,-5.127937 l 0.383883,-0.4060526 4.812832,5.0720378 4.812833,5.0720368 0,8.739767 0,8.739767 -9.621757,0 -9.621757,0 0,-8.683867 z"
           style="fill:#fefefe;fill-opacity:1" />
        <path
           inkscape:connector-curvature="0"
           id="path5200"
           d="m 25.879616,56.991981 -4.904376,-5.163967 -0.003,-9.101281 -0.003,-9.101282 9.621757,0 9.621757,0 -0.0033,9.241951 -0.0033,9.24195 -4.334717,4.613942 c -2.384094,2.537668 -4.50408,4.798151 -4.711081,5.0233 l -0.376365,0.409352 -4.904376,-5.163965 z M 9.7438706,39.977846 C 5.7207384,35.737033 2.4290848,32.242964 2.4290848,32.213248 c 0,-0.02972 3.2916536,-3.565231 7.3147858,-7.856701 l 7.3147854,-7.802674 0.01427,7.80885 c 0.0078,4.294867 0.0078,11.300139 0,15.567271 l -0.01427,7.758422 -7.3147854,-7.71057 z M 44.3203,32.161312 l 0,-15.55515 0.220685,0.224243 c 0.814012,0.827137 14.408887,15.195864 14.408887,15.229074 0,0.02284 -3.257077,3.517932 -7.237954,7.766866 -3.980875,4.248933 -7.272528,7.762409 -7.314786,7.807725 -0.06494,0.06964 -0.07683,-2.324365 -0.07683,-15.472758 z m -23.351047,-11.098075 0,-8.679751 4.7858,-5.1058067 c 2.63219,-2.808194 4.806838,-5.1058071 4.83255,-5.1058071 0.02571,0 2.201894,2.272028 4.835958,5.048951 l 4.789206,5.0489518 0,8.736606 0,8.736607 -9.621757,0 -9.621757,0 0,-8.679751 z"
           style="fill:#fefefe;fill-opacity:1" />
        <path
           inkscape:connector-curvature="0"
           id="path5198"
           d="m 25.880313,56.990184 -4.904377,-5.16217 -0.0033,-9.101281 -0.0033,-9.101282 9.621757,0 9.621757,0 0,9.229186 0,9.229187 -4.650481,4.964311 c -2.557765,2.730371 -4.679082,4.995794 -4.714039,5.034264 -0.04901,0.05394 -1.186282,-1.11178 -4.967934,-5.092215 z M 9.7438706,39.9746 C 5.7207384,35.733605 2.4290848,32.241076 2.4290848,32.213425 c 0,-0.02765 3.2916536,-3.561591 7.3147858,-7.853197 l 7.3147854,-7.802921 0.01427,7.807133 c 0.0078,4.293923 0.0078,11.297766 0,15.564096 L 17.058656,47.685499 9.7438706,39.9746 Z m 34.5791244,-7.827493 0.0027,-15.5426 0.377111,0.403358 c 0.207412,0.221847 3.491523,3.684859 7.298025,7.695583 3.806502,4.010725 6.928069,7.313246 6.936813,7.338937 0.01227,0.03606 -12.027234,12.93224 -14.175758,15.184434 l -0.441581,0.462888 0.0027,-15.5426 z m -23.353331,-11.083394 3.94e-4,-8.679274 4.789601,-5.1085501 c 2.63428,-2.8097025 4.813876,-5.1004583 4.843545,-5.0905685 0.02967,0.00989 2.203527,2.2834166 4.830796,5.0522823 l 4.776868,5.0343003 9.5e-4,8.735543 9.49e-4,8.735542 -9.621757,0 -9.621757,0 3.94e-4,-8.679275 z"
           style="fill:#fefefe;fill-opacity:1" />
        <path
           inkscape:connector-curvature="0"
           id="path5196"
           d="m 25.87698,56.974485 -4.907727,-5.172493 0,-9.088271 0,-9.08827 9.621757,0 9.621757,0 0,9.227498 0,9.227497 -4.707068,5.022268 c -2.588887,2.762247 -4.710201,5.02722 -4.714031,5.033268 -0.0038,0.006 -2.21544,-2.316626 -4.914688,-5.161497 z M 9.7438706,39.970054 C 5.7207384,35.729092 2.4290848,32.239052 2.4290848,32.214409 c 0,-0.02464 3.2916536,-3.556881 7.3147858,-7.849418 l 7.3147854,-7.80461 0.01427,7.805596 c 0.0078,4.293077 0.0078,11.295193 0,15.560256 l -0.01427,7.754661 -7.3147854,-7.71084 z m 34.5790844,-7.820074 0.0027,-15.545473 0.320884,0.345591 c 0.176486,0.190075 3.460615,3.653617 7.298064,7.696761 3.837449,4.043144 6.984247,7.371401 6.99289,7.396129 0.0086,0.02473 -3.276686,3.556647 -7.300719,7.848711 l -7.316429,7.803752 0.0027,-15.545471 z m -23.352678,-11.086267 0.001,-8.679274 4.775356,-5.0922168 c 2.626445,-2.8007189 4.804778,-5.0922162 4.84074,-5.0922162 0.03596,0 2.215856,2.2661769 4.84421,5.0359487 l 4.778827,5.0359483 0.0012,8.735543 0.0012,8.735542 -9.621757,0 -9.621757,0 0.001,-8.679275 z"
           style="fill:#fefefe;fill-opacity:1" />
        <path
           inkscape:connector-curvature="0"
           id="path5194"
           d="M 27.552561,58.737915 C 25.804046,56.892221 23.6075,54.576973 22.671348,53.592921 l -1.702095,-1.789184 0,-9.089143 0,-9.089143 9.621757,0 9.621757,0 0,9.251329 c 0,5.08823 -0.01986,9.259768 -0.04413,9.270084 -0.02427,0.01032 -2.139076,2.253282 -4.699564,4.98437 -2.560489,2.731088 -4.673874,4.964911 -4.696412,4.964056 -0.02254,-8.61e-4 -1.471582,-1.511674 -3.220097,-3.357375 z M 9.7438706,39.963995 c -4.0231322,-4.24055 -7.3147858,-7.72797 -7.3147858,-7.749823 0,-0.02185 3.2916536,-3.551158 7.3147858,-7.8429 l 7.3147854,-7.803167 0.01427,7.801734 c 0.0078,4.290953 0.0078,11.289799 0,15.552989 l -0.01427,7.751257 -7.3147854,-7.71009 z m 34.5789834,-7.815618 0.0026,-15.54387 0.264716,0.287876 c 0.145595,0.158333 3.429769,3.622699 7.298165,7.698593 3.868397,4.075894 7.04029,7.429435 7.048646,7.452315 0.0084,0.02288 -3.276962,3.553254 -7.300717,7.845277 l -7.315919,7.803679 0.0026,-15.54387 z m -23.3513,-11.084664 0.0023,-8.679274 4.776925,-5.0922168 C 28.37809,4.4915033 30.554826,2.200006 30.58797,2.200006 c 0.03315,0 2.211429,2.2661769 4.840632,5.0359487 l 4.780368,5.0359483 0.0019,8.735543 0.0019,8.735542 -9.621757,0 -9.621757,0 0.0023,-8.679275 z"
           style="fill:#fefefe;fill-opacity:1" />
        <path
           inkscape:connector-curvature="0"
           id="path5192"
           d="m 26.174005,57.283365 c -2.506721,-2.644311 -4.703267,-4.961827 -4.881213,-5.150037 l -0.323539,-0.342198 0,-9.08284 0,-9.082839 9.621757,0 9.621757,0 0,9.225326 0,9.225326 -0.127048,0.12916 c -0.06988,0.07104 -2.185947,2.325705 -4.70238,5.010372 -2.516433,2.684667 -4.592506,4.879942 -4.613496,4.878389 -0.02099,-0.0016 -2.089117,-2.166347 -4.595838,-4.810659 z M 9.7586037,39.971949 C 5.7435752,35.740842 2.4519213,32.257456 2.4438181,32.23109 c -0.0081,-0.02636 3.2769203,-3.55961 7.3000525,-7.851656 l 7.3147854,-7.803719 0.01427,7.797929 c 0.0078,4.288861 0.0078,11.28392 0,15.544577 l -0.01427,7.746649 -7.3000523,-7.692921 z m 34.5639833,-7.826034 0.0023,-15.541408 0.152449,0.174719 c 0.08385,0.09609 3.368141,3.561622 7.298432,7.701171 3.930291,4.139548 7.152133,7.542482 7.159645,7.562074 0.0075,0.01959 -2.977326,3.225994 -6.632972,7.125337 -3.655649,3.899344 -6.94712,7.41142 -7.314381,7.804615 l -0.667745,0.714899 0.0023,-15.541407 z m -23.349923,-11.082202 0.0034,-8.679274 4.779456,-5.0922168 c 2.6287,-2.8007189 4.802481,-5.0922162 4.830623,-5.0922162 0.02814,0 2.204125,2.2661769 4.835516,5.0359487 l 4.784347,5.0359483 0.0034,8.735543 0.0034,8.735542 -9.621757,0 -9.621757,0 0.0034,-8.679275 z"
           style="fill:#fefefe;fill-opacity:1" />
        <path
           inkscape:connector-curvature="0"
           id="path5190"
           d="m 26.258406,57.367748 c -2.4603,-2.596649 -4.656846,-4.915936 -4.881213,-5.153969 l -0.40794,-0.43279 0,-9.077769 0,-9.077769 9.621757,0 9.621757,0 0,9.218725 0,9.218726 -0.211004,0.222487 c -0.116051,0.122368 -2.233459,2.380005 -4.705349,5.016973 -2.47189,2.636968 -4.510183,4.792703 -4.529541,4.790525 -0.01936,-0.0022 -2.048167,-2.12849 -4.508467,-4.725139 z M 9.7317185,39.937354 2.4047809,32.214977 l 7.3269376,-7.81785 7.3269375,-7.817848 0.01427,7.763473 c 0.0078,4.269911 0.0078,11.263013 0,15.540227 l -0.01427,7.776752 -7.3269375,-7.722377 z M 44.32209,32.120293 c 0.0014,-12.207151 0.01641,-15.497158 0.07033,-15.428434 0.0377,0.04804 3.322218,3.515497 7.29893,7.705452 3.976711,4.189954 7.230384,7.637497 7.230384,7.661206 0,0.04194 -14.542492,15.577562 -14.58175,15.577562 -0.01083,0 -0.01888,-6.982103 -0.0179,-15.515786 z m -23.352837,-11.044766 0,-8.667461 4.785347,-5.1040298 c 2.631941,-2.8072166 4.806067,-5.1040302 4.831391,-5.1040302 0.02532,0 2.201708,2.2716568 4.836409,5.0481261 l 4.790367,5.0481269 0,8.723364 0,8.723365 -9.621757,0 -9.621757,0 0,-8.667461 z"
           style="fill:#fefefe;fill-opacity:1" />
        <path
           inkscape:connector-curvature="0"
           id="path5188"
           d="M 26.28654,57.395849 C 23.841714,54.81537 21.645168,52.49669 21.405327,52.24323 l -0.436074,-0.460839 0,-9.07847 0,-9.07847 9.621757,0 9.621757,0 0,9.221264 0,9.221264 -0.212827,0.217623 c -0.117055,0.119693 -2.234844,2.376188 -4.706198,5.014435 -2.471354,2.638246 -4.508826,4.794741 -4.527717,4.792203 -0.01889,-0.0025 -2.034658,-2.115909 -4.479485,-4.696391 z M 9.7317911,39.935919 2.4049257,32.213702 9.7317911,24.39878 l 7.3268649,-7.814923 0.01427,7.761185 c 0.0078,4.268651 0.0078,11.260364 0,15.537139 l -0.01427,7.775954 -7.3268649,-7.722216 z m 34.5885089,-7.78685 0,-15.513806 2.631188,2.769868 c 1.447153,1.523427 4.741913,4.994122 7.321688,7.712657 l 4.690498,4.942789 -0.280195,0.290096 c -0.154106,0.159552 -3.325667,3.543768 -7.047909,7.52048 -3.722242,3.976711 -6.890913,7.356685 -7.041491,7.511053 l -0.273779,0.280667 0,-15.513804 z m -23.351047,-11.072018 0,-8.665937 4.787327,-5.1055541 c 2.633029,-2.8080547 4.806357,-5.1055539 4.829616,-5.1055539 0.02326,0 2.198752,2.2721534 4.83443,5.0492295 l 4.792141,5.0492305 0,8.72226 0,8.722262 -9.621757,0 -9.621757,0 0,-8.665937 z"
           style="fill:#fefefe;fill-opacity:1" />
        <path
           inkscape:connector-curvature="0"
           id="path5186"
           d="m 26.119323,57.192791 c -2.561109,-2.70305 -4.767602,-5.02364 -4.903317,-5.156868 l -0.246753,-0.242232 0,-9.08412 0,-9.08412 9.621757,0 9.621757,0 0,9.227126 0,9.227127 -0.191914,0.183627 c -0.105552,0.100994 -2.121535,2.24724 -4.479962,4.769435 -2.358427,2.522194 -4.395364,4.6958 -4.526526,4.830234 l -0.238478,0.244427 -4.656564,-4.914636 z M 9.75537,39.954124 C 5.5184424,35.488736 2.4638536,32.226363 2.480117,32.183981 2.495536,32.143801 5.7820144,28.619099 9.7834036,24.351309 l 7.2752524,-7.759617 0.01427,7.757267 c 0.0078,4.266497 0.0078,11.254889 0,15.529761 l -0.01427,7.772493 -7.303286,-7.697089 z m 34.56493,-7.803405 0,-15.512013 1.53553,1.61466 c 0.844541,0.888064 4.138721,4.358639 7.320399,7.71239 L 58.961097,32.063484 58.654,32.38026 c -0.168909,0.174227 -3.352562,3.570449 -7.07479,7.54716 -3.722229,3.976712 -6.878213,7.343994 -7.013299,7.482849 l -0.245611,0.252463 0,-15.512013 z m -23.351047,-11.08004 0,-8.672309 0.414928,-0.428973 c 0.228211,-0.235934 2.383041,-2.5305665 4.788512,-5.0991816 2.405471,-2.5686152 4.39103,-4.6702094 4.412352,-4.6702094 0.02132,0 2.169219,2.244615 4.773104,4.9880334 2.603885,2.7434183 4.761399,5.0047596 4.794477,5.0252026 0.04226,0.02612 0.06014,2.637763 0.06014,8.783458 l 0,8.746288 -9.621757,0 -9.621757,0 0,-8.672309 z"
           style="fill:#fefefe;fill-opacity:1" />
        <path
           inkscape:connector-curvature="0"
           id="path5184"
           d="m 26.17193,57.248137 c -2.533095,-2.671596 -4.739963,-4.994232 -4.904152,-5.161414 l -0.298525,-0.303968 0,-9.078651 0,-9.078653 9.621757,0 9.621757,0 0,9.225851 0,9.225852 -0.220066,0.213035 c -0.121036,0.11717 -2.149699,2.27665 -4.508138,4.798844 -2.35844,2.522195 -4.382333,4.682724 -4.497539,4.801178 l -0.209467,0.21537 -4.605627,-4.857444 z M 9.7567086,39.951633 c -4.0160712,-4.23355 -7.2933231,-7.724344 -7.282782,-7.757319 0.010541,-0.03298 3.2964179,-3.556243 7.3019479,-7.829486 l 7.2827815,-7.769531 0.01427,7.755464 c 0.0078,4.265506 0.0078,11.252589 0,15.526851 l -0.01427,7.771386 -7.3019474,-7.697365 z M 44.3203,32.150034 l 0,-15.512305 1.42508,1.502614 c 0.783794,0.826438 4.077323,4.297946 7.318954,7.714463 l 5.893871,6.211849 -0.333717,0.343324 c -0.183551,0.188828 -3.392046,3.609658 -7.129995,7.601843 -3.737949,3.992185 -6.881304,7.346717 -6.985232,7.454517 l -0.188961,0.195999 0,-15.512304 z M 20.969253,21.054335 c 0,-4.778758 0.02092,-8.697092 0.04649,-8.707408 0.03279,-0.01323 7.391647,-7.8517366 9.490988,-10.1096071 0.05725,-0.061576 0.165659,0.025083 0.597586,0.4777034 0.290205,0.3041085 0.793814,0.8317061 1.119131,1.172439 0.325318,0.3407331 1.261868,1.3284861 2.081225,2.1950069 0.819356,0.8665208 1.756211,1.8540169 2.0819,2.1944357 0.325689,0.3404189 1.262849,1.3273051 2.082577,2.1930801 0.819728,0.865776 1.547386,1.632869 1.617017,1.704653 l 0.126602,0.130514 0,8.718918 0,8.718918 -9.621757,0 -9.621757,0 0,-8.688653 z"
           style="fill:#fefefe;fill-opacity:1" />
        <path
           inkscape:connector-curvature="0"
           id="path5182"
           d="m 26.282444,57.361331 c -2.473521,-2.607634 -4.680874,-4.93205 -4.90523,-5.165369 l -0.407919,-0.424215 -2.1e-5,-9.073148 -2.1e-5,-9.073148 9.621757,0 9.621757,0 0,9.223129 0,9.223128 -0.304382,0.30016 c -0.16741,0.165088 -2.234152,2.363774 -4.592759,4.885968 -2.358606,2.522194 -4.344062,4.644045 -4.412124,4.715229 l -0.123748,0.129416 -4.49731,-4.74115 z M 9.770309,39.95833 C 5.7646007,35.735568 2.4797173,32.258124 2.4705683,32.230677 2.4614193,32.20323 5.7463266,28.669085 9.7703619,24.377021 l 7.3164281,-7.803752 0,15.531405 c 0,8.542273 -0.0075,15.531405 -0.01669,15.531405 -0.0092,0 -3.294085,-3.454987 -7.299794,-7.677749 z m 34.549991,-7.807814 0,-15.511139 0.295405,0.314221 c 0.162473,0.172821 3.452276,3.642556 7.310675,7.710521 l 7.015271,7.396301 -7.177836,7.661228 c -3.947809,4.213675 -7.237612,7.723953 -7.310675,7.800617 l -0.13284,0.139391 0,-15.51114 z m -23.351047,-11.075435 0,-8.667906 0.134333,-0.123904 c 0.105418,-0.09723 9.413807,-10.0332996 9.462118,-10.1001607 0.0067,-0.00929 2.096877,2.180923 4.644807,4.8671461 2.547929,2.6862229 4.715772,4.9688646 4.817427,5.0725376 l 0.184829,0.188497 0,8.715848 0,8.715849 -9.621757,0 -9.621757,0 0,-8.667907 z"
           style="fill:#fefefe;fill-opacity:1" />
        <path
           inkscape:connector-curvature="0"
           id="path5180"
           d="m 40.156499,42.909602 0,-9.227883 -9.565319,0 -9.565319,0 -0.01441,9.101281 -0.01441,9.101282 -0.0139,-9.129416 -0.0139,-9.129415 9.621757,0 9.621757,0 0,9.256018 c 0,5.090809 -0.01266,9.256017 -0.02813,9.256017 -0.01547,0 -0.02813,-4.152548 -0.02813,-9.227884 z M 44.348034,32.13436 c 1e-6,-8.541419 0.0065,-12.027263 0.01447,-7.746321 0.008,4.280943 0.008,11.269377 -1e-6,15.529853 -0.008,4.260477 -0.01447,0.757887 -0.01447,-7.783532 z m -23.364893,-11.098781 0.01389,-8.707408 0.01442,8.679275 0.01442,8.679274 9.565134,0 9.565134,0 0.01442,-8.735542 0.01442,-8.735542 0.01389,8.763676 0.01389,8.763676 -9.621757,0 -9.621757,0 0.01389,-8.707409 z"
           style="fill:#fefefe;fill-opacity:1" />
        <path
           inkscape:connector-curvature="0"
           id="path5178"
           d="m 40.183972,42.881469 c 1e-6,-5.106284 0.0066,-7.186889 0.01473,-4.623569 0.0081,2.563321 0.0081,6.741189 -3e-6,9.284152 -0.0081,2.542962 -0.01472,0.4457 -0.01472,-4.660583 z M 20.996717,42.7408 c 0,-5.028916 0.0066,-7.086199 0.01473,-4.571742 0.0081,2.514458 0.0081,6.629025 0,9.143483 -0.0081,2.514457 -0.01473,0.457174 -0.01473,-4.571741 z M 44.348034,32.13436 c 1e-6,-8.541419 0.0065,-12.027263 0.01447,-7.746321 0.008,4.280943 0.008,11.269377 -1e-6,15.529853 -0.008,4.260477 -0.01447,0.757887 -0.01447,-7.783532 z m -23.364893,-11.098781 0.01389,-8.707408 0.01442,8.679275 0.01442,8.679274 9.565134,0 9.565134,0 0.01442,-8.735542 0.01442,-8.735542 0.01389,8.763676 0.01389,8.763676 -9.621757,0 -9.621757,0 0.01389,-8.707409 z"
           style="fill:#fefefe;fill-opacity:1" />
        <path
           inkscape:connector-curvature="0"
           id="path5176"
           d="m 40.18397,42.853335 c 0,-5.09081 0.0066,-7.173414 0.01472,-4.628009 0.0081,2.545405 0.0081,6.710613 0,9.256017 -0.0081,2.545405 -0.01472,0.462801 -0.01472,-4.628008 z M 20.996717,42.7408 c 0,-5.028916 0.0066,-7.086199 0.01473,-4.571742 0.0081,2.514458 0.0081,6.629025 0,9.143483 -0.0081,2.514457 -0.01473,0.457174 -0.01473,-4.571741 z M 44.348034,32.13436 c 1e-6,-8.541419 0.0065,-12.027263 0.01447,-7.746321 0.008,4.280943 0.008,11.269377 -1e-6,15.529853 -0.008,4.260477 -0.01447,0.757887 -0.01447,-7.783532 z M 20.996685,21.049646 c -1e-6,-4.796811 0.0066,-6.767465 0.01476,-4.379229 0.0081,2.388235 0.0081,6.312899 2e-6,8.721475 -0.0081,2.408576 -0.01476,0.454566 -0.01477,-4.342246 z m 19.18725,-0.05627 c 1e-6,-4.827759 0.0066,-6.794429 0.01476,-4.370378 0.0081,2.424051 0.0081,6.374035 -2e-6,8.777743 -0.0081,2.403708 -0.01476,0.420393 -0.01476,-4.407365 z"
           style="fill:#fefefe;fill-opacity:1" />
        <path
           inkscape:connector-curvature="0"
           id="path5174"
           d="m 44.348034,32.13436 c 1e-6,-8.541419 0.0065,-12.027263 0.01447,-7.746321 0.008,4.280943 0.008,11.269377 -1e-6,15.529853 -0.008,4.260477 -0.01447,0.757887 -0.01447,-7.783532 z"
           style="fill:#fefefe;fill-opacity:1" />
      </g>
    </g>
  </g>
</svg>
